STARTFONT 2.1
COMMENT
COMMENT Converted from OpenType font "SpartanMB-Regular.otf" by "otf2bdf 3.0".
COMMENT
FONT -FreeType-Spartan MB-Medium-R-Normal--17-120-100-100-P-86-ISO10646-1
SIZE 12 100 100
FONTBOUNDINGBOX 26 25 -2 -5
STARTPROPERTIES 19
FOUNDRY "FreeType"
FAMILY_NAME "Spartan MB"
WEIGHT_NAME "Medium"
SLANT "R"
SETWIDTH_NAME "Normal"
ADD_STYLE_NAME ""
PIXEL_SIZE 17
POINT_SIZE 120
RESOLUTION_X 100
RESOLUTION_Y 100
SPACING "P"
AVERAGE_WIDTH 86
CHARSET_REGISTRY "ISO10646"
CHARSET_ENCODING "1"
FONT_ASCENT 19
FONT_DESCENT 4
COPYRIGHT "Copyright (c) 2017 by Matt Bailey. All rights reserved."
_OTF_FONTFILE "SpartanMB-Regular.otf"
_OTF_PSNAME "SpartanMB-Regular"
ENDPROPERTIES
CHARS 308
STARTCHAR 0000
ENCODING 0
SWIDTH 0 0
DWIDTH 0 0
BBX 0 0 0 0
BITMAP
ENDCHAR
STARTCHAR 000D
ENCODING 13
SWIDTH 240 0
DWIDTH 4 0
BBX 0 0 0 0
BITMAP
ENDCHAR
STARTCHAR 0020
ENCODING 32
SWIDTH 240 0
DWIDTH 4 0
BBX 0 0 0 0
BITMAP
ENDCHAR
STARTCHAR 0021
ENCODING 33
SWIDTH 300 0
DWIDTH 5 0
BBX 1 14 2 0
BITMAP
80
80
80
80
80
80
80
80
80
80
00
00
80
80
ENDCHAR
STARTCHAR 0022
ENCODING 34
SWIDTH 300 0
DWIDTH 5 0
BBX 3 4 1 10
BITMAP
A0
A0
A0
A0
ENDCHAR
STARTCHAR 0023
ENCODING 35
SWIDTH 720 0
DWIDTH 12 0
BBX 9 13 1 0
BITMAP
1100
1100
1100
2100
FF80
2200
2200
2200
FF80
2200
2200
4200
4200
ENDCHAR
STARTCHAR 0024
ENCODING 36
SWIDTH 660 0
DWIDTH 11 0
BBX 9 18 1 -2
BITMAP
0800
0800
3E00
6300
4000
4000
6000
3000
1C00
0700
0180
0180
0080
C180
7700
3E00
0800
0800
ENDCHAR
STARTCHAR 0025
ENCODING 37
SWIDTH 1020 0
DWIDTH 17 0
BBX 15 14 1 0
BITMAP
7810
8420
8260
8240
8480
7880
0100
0138
0244
0482
0482
0882
0844
1038
ENDCHAR
STARTCHAR 0026
ENCODING 38
SWIDTH 780 0
DWIDTH 13 0
BBX 12 14 1 0
BITMAP
1E00
3300
6100
6100
3300
1600
1800
6C00
C620
C360
C1C0
C1C0
7760
3C30
ENDCHAR
STARTCHAR 0027
ENCODING 39
SWIDTH 180 0
DWIDTH 3 0
BBX 1 4 1 10
BITMAP
80
80
80
80
ENDCHAR
STARTCHAR 0028
ENCODING 40
SWIDTH 360 0
DWIDTH 6 0
BBX 4 19 1 -5
BITMAP
10
30
20
60
40
40
40
C0
C0
C0
C0
C0
40
40
40
60
20
30
10
ENDCHAR
STARTCHAR 0029
ENCODING 41
SWIDTH 360 0
DWIDTH 6 0
BBX 3 19 1 -5
BITMAP
80
80
40
40
60
20
20
20
20
20
20
20
20
20
60
40
40
80
80
ENDCHAR
STARTCHAR 002A
ENCODING 42
SWIDTH 300 0
DWIDTH 5 0
BBX 4 4 1 10
BITMAP
40
F0
40
A0
ENDCHAR
STARTCHAR 002B
ENCODING 43
SWIDTH 600 0
DWIDTH 10 0
BBX 9 8 1 3
BITMAP
0800
0800
0800
0800
FF80
0800
0800
0800
ENDCHAR
STARTCHAR 002C
ENCODING 44
SWIDTH 240 0
DWIDTH 4 0
BBX 2 4 1 -2
BITMAP
C0
C0
40
80
ENDCHAR
STARTCHAR 002D
ENCODING 45
SWIDTH 480 0
DWIDTH 8 0
BBX 5 1 1 4
BITMAP
F8
ENDCHAR
STARTCHAR 002E
ENCODING 46
SWIDTH 240 0
DWIDTH 4 0
BBX 2 2 1 0
BITMAP
C0
C0
ENDCHAR
STARTCHAR 002F
ENCODING 47
SWIDTH 480 0
DWIDTH 8 0
BBX 8 16 0 -2
BITMAP
01
03
02
02
04
04
08
08
18
10
10
20
20
40
40
C0
ENDCHAR
STARTCHAR 0030
ENCODING 48
SWIDTH 780 0
DWIDTH 13 0
BBX 11 14 1 0
BITMAP
1F00
3980
60C0
4060
C060
C020
C020
C020
C020
C060
4060
60C0
3980
1F00
ENDCHAR
STARTCHAR 0031
ENCODING 49
SWIDTH 300 0
DWIDTH 5 0
BBX 3 14 0 0
BITMAP
E0
E0
20
20
20
20
20
20
20
20
20
20
20
20
ENDCHAR
STARTCHAR 0032
ENCODING 50
SWIDTH 720 0
DWIDTH 12 0
BBX 10 14 1 0
BITMAP
1E00
3380
6180
40C0
40C0
00C0
0080
0180
0300
0600
0C00
1800
6000
FFC0
ENDCHAR
STARTCHAR 0033
ENCODING 51
SWIDTH 660 0
DWIDTH 11 0
BBX 9 14 1 0
BITMAP
3E00
6300
4100
0100
0100
0300
0C00
0300
0100
0180
8180
C100
6700
3C00
ENDCHAR
STARTCHAR 0034
ENCODING 52
SWIDTH 600 0
DWIDTH 10 0
BBX 10 14 0 0
BITMAP
0300
0700
0F00
0B00
1B00
3300
2300
4300
FFC0
0300
0300
0300
0300
0300
ENDCHAR
STARTCHAR 0035
ENCODING 53
SWIDTH 660 0
DWIDTH 11 0
BBX 9 14 1 0
BITMAP
7F80
6000
6000
6000
4000
7E00
4300
0180
0080
0080
0080
C180
6300
3E00
ENDCHAR
STARTCHAR 0036
ENCODING 54
SWIDTH 720 0
DWIDTH 12 0
BBX 10 14 1 0
BITMAP
0600
0400
0C00
1800
3000
7F00
6180
C080
C0C0
80C0
C0C0
C180
7380
1E00
ENDCHAR
STARTCHAR 0037
ENCODING 55
SWIDTH 600 0
DWIDTH 10 0
BBX 9 14 1 0
BITMAP
FF80
0100
0300
0200
0600
0400
0C00
1800
1800
3000
3000
6000
6000
C000
ENDCHAR
STARTCHAR 0038
ENCODING 56
SWIDTH 660 0
DWIDTH 11 0
BBX 9 14 1 0
BITMAP
3C00
6300
4100
4100
4100
6300
3C00
6300
C100
C180
C180
C100
6700
3E00
ENDCHAR
STARTCHAR 0039
ENCODING 57
SWIDTH 720 0
DWIDTH 12 0
BBX 10 14 1 0
BITMAP
3E00
7300
C180
C0C0
80C0
80C0
C080
6180
3F00
0200
0600
0C00
1800
3000
ENDCHAR
STARTCHAR 003A
ENCODING 58
SWIDTH 240 0
DWIDTH 4 0
BBX 2 10 1 0
BITMAP
C0
C0
00
00
00
00
00
00
C0
C0
ENDCHAR
STARTCHAR 003B
ENCODING 59
SWIDTH 240 0
DWIDTH 4 0
BBX 2 11 1 -2
BITMAP
C0
C0
00
00
00
00
00
C0
C0
40
80
ENDCHAR
STARTCHAR 003C
ENCODING 60
SWIDTH 600 0
DWIDTH 10 0
BBX 10 10 0 2
BITMAP
0040
0180
0E00
3800
E000
E000
3800
0E00
0380
0040
ENDCHAR
STARTCHAR 003D
ENCODING 61
SWIDTH 600 0
DWIDTH 10 0
BBX 8 4 1 5
BITMAP
FF
00
00
FF
ENDCHAR
STARTCHAR 003E
ENCODING 62
SWIDTH 600 0
DWIDTH 10 0
BBX 9 10 1 2
BITMAP
8000
E000
3800
0E00
0380
0380
0E00
3800
E000
8000
ENDCHAR
STARTCHAR 003F
ENCODING 63
SWIDTH 600 0
DWIDTH 10 0
BBX 8 14 1 0
BITMAP
3C
E6
83
81
01
03
06
1C
10
10
00
00
10
10
ENDCHAR
STARTCHAR 0040
ENCODING 64
SWIDTH 960 0
DWIDTH 16 0
BBX 14 14 1 0
BITMAP
0FC0
1870
6018
4728
D8A4
9064
9024
9024
9064
D8F8
4F80
2010
1860
0FC0
ENDCHAR
STARTCHAR 0041
ENCODING 65
SWIDTH 720 0
DWIDTH 12 0
BBX 12 14 0 0
BITMAP
0600
0600
0F00
0B00
0900
1980
1080
30C0
30C0
3FC0
6060
4060
C030
C030
ENDCHAR
STARTCHAR 0042
ENCODING 66
SWIDTH 660 0
DWIDTH 11 0
BBX 8 14 2 0
BITMAP
F8
8C
86
86
86
8C
FC
8C
83
83
81
83
86
FC
ENDCHAR
STARTCHAR 0043
ENCODING 67
SWIDTH 780 0
DWIDTH 13 0
BBX 12 14 1 0
BITMAP
0FC0
1FF0
3000
6000
C000
C000
C000
C000
C000
C000
6000
3000
1FF0
0FC0
ENDCHAR
STARTCHAR 0044
ENCODING 68
SWIDTH 780 0
DWIDTH 13 0
BBX 10 14 2 0
BITMAP
F800
8E00
8300
8180
8080
80C0
80C0
80C0
80C0
8080
8180
8300
8E00
F800
ENDCHAR
STARTCHAR 0045
ENCODING 69
SWIDTH 600 0
DWIDTH 10 0
BBX 7 14 2 0
BITMAP
FE
80
80
80
80
80
FC
80
80
80
80
80
80
FE
ENDCHAR
STARTCHAR 0046
ENCODING 70
SWIDTH 600 0
DWIDTH 10 0
BBX 7 14 2 0
BITMAP
FE
80
80
80
80
80
FC
80
80
80
80
80
80
80
ENDCHAR
STARTCHAR 0047
ENCODING 71
SWIDTH 900 0
DWIDTH 15 0
BBX 13 14 1 0
BITMAP
0F80
3CE0
7030
6000
C000
C000
C000
C1F8
C018
C018
6018
7030
3CE0
0F80
ENDCHAR
STARTCHAR 0048
ENCODING 72
SWIDTH 780 0
DWIDTH 13 0
BBX 10 14 2 0
BITMAP
80C0
80C0
80C0
80C0
80C0
80C0
FFC0
80C0
80C0
80C0
80C0
80C0
80C0
80C0
ENDCHAR
STARTCHAR 0049
ENCODING 73
SWIDTH 300 0
DWIDTH 5 0
BBX 1 14 2 0
BITMAP
80
80
80
80
80
80
80
80
80
80
80
80
80
80
ENDCHAR
STARTCHAR 004A
ENCODING 74
SWIDTH 540 0
DWIDTH 9 0
BBX 7 14 0 0
BITMAP
02
02
02
02
02
02
02
02
02
02
06
06
DC
78
ENDCHAR
STARTCHAR 004B
ENCODING 75
SWIDTH 720 0
DWIDTH 12 0
BBX 9 14 2 0
BITMAP
8180
8300
8600
8C00
9800
B000
E000
F000
B000
9800
8C00
8600
8300
8180
ENDCHAR
STARTCHAR 004C
ENCODING 76
SWIDTH 540 0
DWIDTH 9 0
BBX 7 14 2 0
BITMAP
80
80
80
80
80
80
80
80
80
80
80
80
80
FE
ENDCHAR
STARTCHAR 004D
ENCODING 77
SWIDTH 960 0
DWIDTH 16 0
BBX 14 14 1 0
BITMAP
6010
7038
7038
7038
5878
4848
48C8
CCC8
C488
C78C
C70C
C30C
830C
8004
ENDCHAR
STARTCHAR 004E
ENCODING 78
SWIDTH 780 0
DWIDTH 13 0
BBX 10 14 2 0
BITMAP
80C0
C0C0
E0C0
A0C0
B0C0
98C0
88C0
8CC0
84C0
86C0
83C0
81C0
81C0
80C0
ENDCHAR
STARTCHAR 004F
ENCODING 79
SWIDTH 960 0
DWIDTH 16 0
BBX 14 14 1 0
BITMAP
0F80
3FE0
7030
6018
C008
C00C
C00C
C00C
C00C
C008
6018
7030
3DE0
0F80
ENDCHAR
STARTCHAR 0050
ENCODING 80
SWIDTH 660 0
DWIDTH 11 0
BBX 8 14 2 0
BITMAP
FC
8E
83
83
83
83
86
FC
80
80
80
80
80
80
ENDCHAR
STARTCHAR 0051
ENCODING 81
SWIDTH 960 0
DWIDTH 16 0
BBX 14 14 1 0
BITMAP
0F80
1FE0
3030
6018
C008
C00C
C00C
C00C
C00C
C188
60D8
7070
3DFC
0FCC
ENDCHAR
STARTCHAR 0052
ENCODING 82
SWIDTH 660 0
DWIDTH 11 0
BBX 8 14 2 0
BITMAP
FC
8E
83
83
83
83
86
FC
90
98
8C
86
83
83
ENDCHAR
STARTCHAR 0053
ENCODING 83
SWIDTH 660 0
DWIDTH 11 0
BBX 9 14 1 0
BITMAP
1E00
3300
6000
4000
4000
7000
3C00
0700
0180
0180
0080
C180
7700
3E00
ENDCHAR
STARTCHAR 0054
ENCODING 84
SWIDTH 600 0
DWIDTH 10 0
BBX 10 14 0 0
BITMAP
FFC0
0C00
0C00
0C00
0C00
0C00
0C00
0C00
0C00
0C00
0C00
0C00
0C00
0C00
ENDCHAR
STARTCHAR 0055
ENCODING 85
SWIDTH 780 0
DWIDTH 13 0
BBX 10 14 1 0
BITMAP
C040
C040
C040
C040
C040
C040
C040
C040
C040
C040
40C0
60C0
7F80
1F00
ENDCHAR
STARTCHAR 0056
ENCODING 86
SWIDTH 720 0
DWIDTH 12 0
BBX 12 14 0 0
BITMAP
C010
C030
6030
6060
2060
3040
10C0
1880
1980
0980
0D00
0700
0600
0600
ENDCHAR
STARTCHAR 0057
ENCODING 87
SWIDTH 1080 0
DWIDTH 18 0
BBX 18 14 0 0
BITMAP
C0C040
C0C040
40E0C0
40E0C0
61A080
613180
213180
331100
321900
121B00
160B00
1C0A00
1C0E00
0C0600
ENDCHAR
STARTCHAR 0058
ENCODING 88
SWIDTH 720 0
DWIDTH 12 0
BBX 12 14 0 0
BITMAP
6060
3040
30C0
1980
0F00
0F00
0600
0F00
0D00
1980
30C0
2040
6060
C030
ENDCHAR
STARTCHAR 0059
ENCODING 89
SWIDTH 660 0
DWIDTH 11 0
BBX 11 14 0 0
BITMAP
C060
60C0
6080
3180
1300
1B00
0E00
0C00
0400
0400
0400
0400
0400
0400
ENDCHAR
STARTCHAR 005A
ENCODING 90
SWIDTH 780 0
DWIDTH 13 0
BBX 11 14 1 0
BITMAP
7FE0
00C0
0080
0180
0300
0600
0600
0C00
1800
1000
3000
6000
4000
FFE0
ENDCHAR
STARTCHAR 005B
ENCODING 91
SWIDTH 360 0
DWIDTH 6 0
BBX 3 19 2 -5
BITMAP
E0
80
80
80
80
80
80
80
80
80
80
80
80
80
80
80
80
80
E0
ENDCHAR
STARTCHAR 005C
ENCODING 92
SWIDTH 480 0
DWIDTH 8 0
BBX 8 14 0 0
BITMAP
C0
40
60
20
30
10
18
08
0C
04
06
02
02
01
ENDCHAR
STARTCHAR 005D
ENCODING 93
SWIDTH 360 0
DWIDTH 6 0
BBX 4 19 0 -5
BITMAP
F0
10
10
10
10
10
10
10
10
10
10
10
10
10
10
10
10
10
F0
ENDCHAR
STARTCHAR 005E
ENCODING 94
SWIDTH 480 0
DWIDTH 8 0
BBX 7 4 0 10
BITMAP
18
28
64
C2
ENDCHAR
STARTCHAR 005F
ENCODING 95
SWIDTH 540 0
DWIDTH 9 0
BBX 9 1 0 -2
BITMAP
FF80
ENDCHAR
STARTCHAR 0060
ENCODING 96
SWIDTH 300 0
DWIDTH 5 0
BBX 3 3 1 11
BITMAP
80
C0
20
ENDCHAR
STARTCHAR 0061
ENCODING 97
SWIDTH 720 0
DWIDTH 12 0
BBX 9 9 1 0
BITMAP
3C80
6280
C180
C180
8080
C180
C180
6280
3C80
ENDCHAR
STARTCHAR 0062
ENCODING 98
SWIDTH 720 0
DWIDTH 12 0
BBX 10 14 1 0
BITMAP
C000
C000
C000
C000
C000
DE00
F380
E180
C0C0
C0C0
C0C0
E080
F380
DE00
ENDCHAR
STARTCHAR 0063
ENCODING 99
SWIDTH 540 0
DWIDTH 9 0
BBX 7 9 1 0
BITMAP
3E
72
C0
80
80
80
C0
72
3E
ENDCHAR
STARTCHAR 0064
ENCODING 100
SWIDTH 720 0
DWIDTH 12 0
BBX 9 14 1 0
BITMAP
0080
0080
0080
0080
0080
3C80
6280
C180
C180
8080
C080
C180
6280
3C80
ENDCHAR
STARTCHAR 0065
ENCODING 101
SWIDTH 660 0
DWIDTH 11 0
BBX 9 9 1 0
BITMAP
3C00
6300
C100
8180
FF80
8000
C100
6300
3E00
ENDCHAR
STARTCHAR 0066
ENCODING 102
SWIDTH 300 0
DWIDTH 5 0
BBX 5 14 1 0
BITMAP
38
60
40
40
40
F0
40
40
40
40
40
40
40
40
ENDCHAR
STARTCHAR 0067
ENCODING 103
SWIDTH 720 0
DWIDTH 12 0
BBX 9 14 1 -5
BITMAP
3C80
6280
C180
C180
8080
C180
C180
6280
3C80
0080
0180
C180
6300
3E00
ENDCHAR
STARTCHAR 0068
ENCODING 104
SWIDTH 600 0
DWIDTH 10 0
BBX 8 14 1 0
BITMAP
C0
C0
C0
C0
C0
DE
E3
C3
C1
C1
C1
C1
C1
C1
ENDCHAR
STARTCHAR 0069
ENCODING 105
SWIDTH 240 0
DWIDTH 4 0
BBX 2 13 1 0
BITMAP
C0
C0
00
00
C0
C0
C0
C0
C0
C0
C0
C0
C0
ENDCHAR
STARTCHAR 006A
ENCODING 106
SWIDTH 240 0
DWIDTH 4 0
BBX 4 18 -1 -5
BITMAP
30
30
00
00
30
30
30
30
30
30
30
30
30
30
30
30
30
E0
ENDCHAR
STARTCHAR 006B
ENCODING 107
SWIDTH 540 0
DWIDTH 9 0
BBX 7 14 1 0
BITMAP
C0
C0
C0
C0
C0
C0
CC
D8
F0
F0
D8
CC
C6
C2
ENDCHAR
STARTCHAR 006C
ENCODING 108
SWIDTH 240 0
DWIDTH 4 0
BBX 2 14 1 0
BITMAP
C0
C0
C0
C0
C0
C0
C0
C0
C0
C0
C0
C0
C0
C0
ENDCHAR
STARTCHAR 006D
ENCODING 109
SWIDTH 960 0
DWIDTH 16 0
BBX 14 9 1 0
BITMAP
DE78
E698
C30C
C30C
C30C
C30C
C30C
C30C
C30C
ENDCHAR
STARTCHAR 006E
ENCODING 110
SWIDTH 600 0
DWIDTH 10 0
BBX 8 9 1 0
BITMAP
DE
E3
C3
C1
C1
C1
C1
C1
C1
ENDCHAR
STARTCHAR 006F
ENCODING 111
SWIDTH 660 0
DWIDTH 11 0
BBX 9 9 1 0
BITMAP
3E00
6300
C180
8080
8080
8080
C180
6300
3E00
ENDCHAR
STARTCHAR 0070
ENCODING 112
SWIDTH 720 0
DWIDTH 12 0
BBX 10 14 1 -5
BITMAP
DE00
F380
E180
C0C0
C0C0
C0C0
E080
F380
DE00
C000
C000
C000
C000
C000
ENDCHAR
STARTCHAR 0071
ENCODING 113
SWIDTH 720 0
DWIDTH 12 0
BBX 9 14 1 -5
BITMAP
3C80
6280
C180
C180
8080
C180
C180
6280
3C80
0080
0080
0080
0080
0080
ENDCHAR
STARTCHAR 0072
ENCODING 114
SWIDTH 420 0
DWIDTH 7 0
BBX 6 9 1 0
BITMAP
DC
E0
C0
C0
C0
C0
C0
C0
C0
ENDCHAR
STARTCHAR 0073
ENCODING 115
SWIDTH 480 0
DWIDTH 8 0
BBX 6 9 1 0
BITMAP
78
C8
C0
60
38
0C
04
CC
78
ENDCHAR
STARTCHAR 0074
ENCODING 116
SWIDTH 360 0
DWIDTH 6 0
BBX 4 12 1 0
BITMAP
40
40
40
F0
40
40
40
40
40
40
60
70
ENDCHAR
STARTCHAR 0075
ENCODING 117
SWIDTH 600 0
DWIDTH 10 0
BBX 8 9 1 0
BITMAP
C3
C3
C3
C3
C3
C3
C3
66
3C
ENDCHAR
STARTCHAR 0076
ENCODING 118
SWIDTH 540 0
DWIDTH 9 0
BBX 9 9 0 0
BITMAP
C180
4180
6100
2300
3200
3600
1400
1C00
0800
ENDCHAR
STARTCHAR 0077
ENCODING 119
SWIDTH 900 0
DWIDTH 15 0
BBX 15 9 0 0
BITMAP
C102
4186
6384
228C
36C8
3458
1470
1C30
0820
ENDCHAR
STARTCHAR 0078
ENCODING 120
SWIDTH 540 0
DWIDTH 9 0
BBX 9 9 0 0
BITMAP
6100
2300
3600
1C00
0C00
1C00
3600
6300
C180
ENDCHAR
STARTCHAR 0079
ENCODING 121
SWIDTH 540 0
DWIDTH 9 0
BBX 9 14 0 -5
BITMAP
C080
4180
6100
2300
3200
3200
1600
1C00
0C00
0800
1800
1000
3000
3000
ENDCHAR
STARTCHAR 007A
ENCODING 122
SWIDTH 540 0
DWIDTH 9 0
BBX 8 9 1 0
BITMAP
FF
06
0C
08
18
30
60
40
FF
ENDCHAR
STARTCHAR 007B
ENCODING 123
SWIDTH 360 0
DWIDTH 6 0
BBX 4 19 1 -5
BITMAP
30
60
40
40
40
40
40
40
40
C0
40
40
40
40
40
40
40
60
30
ENDCHAR
STARTCHAR 007C
ENCODING 124
SWIDTH 240 0
DWIDTH 4 0
BBX 1 14 2 0
BITMAP
80
80
80
80
80
80
80
80
80
80
80
80
80
80
ENDCHAR
STARTCHAR 007D
ENCODING 125
SWIDTH 360 0
DWIDTH 6 0
BBX 4 19 0 -5
BITMAP
E0
20
30
30
30
30
30
30
30
10
30
30
30
30
30
30
30
20
E0
ENDCHAR
STARTCHAR 007E
ENCODING 126
SWIDTH 660 0
DWIDTH 11 0
BBX 9 3 1 5
BITMAP
7880
DD00
8600
ENDCHAR
STARTCHAR 00A1
ENCODING 161
SWIDTH 300 0
DWIDTH 5 0
BBX 1 15 2 -5
BITMAP
80
80
00
00
80
80
80
80
80
80
80
80
80
80
80
ENDCHAR
STARTCHAR 00A2
ENCODING 162
SWIDTH 540 0
DWIDTH 9 0
BBX 7 13 1 -2
BITMAP
10
10
3E
72
C0
80
80
80
C0
72
3E
08
08
ENDCHAR
STARTCHAR 00A3
ENCODING 163
SWIDTH 780 0
DWIDTH 13 0
BBX 11 14 1 0
BITMAP
1F00
3180
20C0
6040
6000
6000
6000
3000
FF00
1000
1000
3860
4E40
8380
ENDCHAR
STARTCHAR 00A5
ENCODING 165
SWIDTH 660 0
DWIDTH 11 0
BBX 11 14 0 0
BITMAP
C060
60C0
2080
3180
1B00
1B00
0E00
7FC0
0400
0400
7FC0
0400
0400
0400
ENDCHAR
STARTCHAR 00A6
ENCODING 166
SWIDTH 240 0
DWIDTH 4 0
BBX 1 14 2 0
BITMAP
80
80
80
80
80
80
00
00
80
80
80
80
80
80
ENDCHAR
STARTCHAR 00A7
ENCODING 167
SWIDTH 660 0
DWIDTH 11 0
BBX 9 19 1 -5
BITMAP
3C00
6200
4100
4000
4000
7000
3C00
4F00
C100
C180
6180
3900
0E00
0300
0100
0180
C100
6300
3E00
ENDCHAR
STARTCHAR 00A8
ENCODING 168
SWIDTH 480 0
DWIDTH 8 0
BBX 6 2 1 11
BITMAP
CC
C8
ENDCHAR
STARTCHAR 00A9
ENCODING 169
SWIDTH 960 0
DWIDTH 16 0
BBX 14 14 1 0
BITMAP
0FC0
1860
2010
4788
8C08
9804
9004
9004
9804
8C08
4788
6010
3860
0FC0
ENDCHAR
STARTCHAR 00AA
ENCODING 170
SWIDTH 480 0
DWIDTH 8 0
BBX 6 6 1 8
BITMAP
74
8C
84
84
CC
70
ENDCHAR
STARTCHAR 00AB
ENCODING 171
SWIDTH 540 0
DWIDTH 9 0
BBX 8 9 0 0
BITMAP
11
31
22
46
CC
46
22
31
11
ENDCHAR
STARTCHAR 00AE
ENCODING 174
SWIDTH 540 0
DWIDTH 9 0
BBX 7 7 1 7
BITMAP
78
B6
B2
A2
B2
84
78
ENDCHAR
STARTCHAR 00AF
ENCODING 175
SWIDTH 540 0
DWIDTH 9 0
BBX 7 1 1 11
BITMAP
FE
ENDCHAR
STARTCHAR 00B0
ENCODING 176
SWIDTH 300 0
DWIDTH 5 0
BBX 3 4 1 10
BITMAP
E0
A0
A0
40
ENDCHAR
STARTCHAR 00B1
ENCODING 177
SWIDTH 660 0
DWIDTH 11 0
BBX 9 11 1 0
BITMAP
0800
0800
0800
FF80
0800
0800
0800
0800
0000
0000
FF80
ENDCHAR
STARTCHAR 00B2
ENCODING 178
SWIDTH 300 0
DWIDTH 5 0
BBX 3 6 1 8
BITMAP
E0
20
20
40
80
E0
ENDCHAR
STARTCHAR 00B3
ENCODING 179
SWIDTH 240 0
DWIDTH 4 0
BBX 4 6 0 8
BITMAP
60
10
20
10
90
60
ENDCHAR
STARTCHAR 00B4
ENCODING 180
SWIDTH 360 0
DWIDTH 6 0
BBX 2 3 2 11
BITMAP
40
C0
80
ENDCHAR
STARTCHAR 00B5
ENCODING 181
SWIDTH 660 0
DWIDTH 11 0
BBX 8 11 1 -2
BITMAP
41
41
41
41
41
41
41
63
7D
C0
C0
ENDCHAR
STARTCHAR 00B6
ENCODING 182
SWIDTH 660 0
DWIDTH 11 0
BBX 8 14 1 0
BITMAP
3F
7F
FF
FF
FF
FF
7F
3F
03
03
03
03
03
03
ENDCHAR
STARTCHAR 00B7
ENCODING 183
SWIDTH 240 0
DWIDTH 4 0
BBX 2 2 1 3
BITMAP
C0
C0
ENDCHAR
STARTCHAR 00B8
ENCODING 184
SWIDTH 420 0
DWIDTH 7 0
BBX 5 5 1 -5
BITMAP
20
30
08
88
70
ENDCHAR
STARTCHAR 00B9
ENCODING 185
SWIDTH 120 0
DWIDTH 2 0
BBX 2 5 0 9
BITMAP
C0
40
40
40
40
ENDCHAR
STARTCHAR 00BA
ENCODING 186
SWIDTH 480 0
DWIDTH 8 0
BBX 6 6 1 8
BITMAP
78
84
84
84
C8
30
ENDCHAR
STARTCHAR 00BB
ENCODING 187
SWIDTH 540 0
DWIDTH 9 0
BBX 8 9 1 0
BITMAP
88
CC
44
22
33
22
44
CC
88
ENDCHAR
STARTCHAR 00BC
ENCODING 188
SWIDTH 780 0
DWIDTH 13 0
BBX 11 14 1 0
BITMAP
C080
4100
4100
4200
4400
4400
4840
48C0
1140
1140
2240
47E0
4040
8040
ENDCHAR
STARTCHAR 00BD
ENCODING 189
SWIDTH 900 0
DWIDTH 15 0
BBX 13 14 1 0
BITMAP
C080
4100
4100
4200
4400
4400
48F0
4910
1108
1010
2010
4020
40C0
81F8
ENDCHAR
STARTCHAR 00BE
ENCODING 190
SWIDTH 900 0
DWIDTH 15 0
BBX 14 14 1 0
BITMAP
7020
9020
1040
3040
1080
0900
8918
F228
0228
0448
0488
08FC
1008
1008
ENDCHAR
STARTCHAR 00BF
ENCODING 191
SWIDTH 600 0
DWIDTH 10 0
BBX 8 15 1 -5
BITMAP
18
18
00
00
08
08
38
60
C0
80
80
81
C3
66
3C
ENDCHAR
STARTCHAR 00C0
ENCODING 192
SWIDTH 720 0
DWIDTH 12 0
BBX 12 18 0 0
BITMAP
0800
0C00
0400
0000
0600
0600
0F00
0B00
0900
1980
1080
30C0
30C0
3FC0
6060
4060
C030
C030
ENDCHAR
STARTCHAR 00C1
ENCODING 193
SWIDTH 720 0
DWIDTH 12 0
BBX 12 18 0 0
BITMAP
0100
0300
0200
0000
0600
0600
0F00
0B00
0900
1980
1080
30C0
30C0
3FC0
6060
4060
C030
C030
ENDCHAR
STARTCHAR 00C2
ENCODING 194
SWIDTH 720 0
DWIDTH 12 0
BBX 12 18 0 0
BITMAP
0600
0F00
1080
0000
0600
0600
0F00
0B00
0900
1980
1080
30C0
30C0
3FC0
6060
4060
C030
C030
ENDCHAR
STARTCHAR 00C3
ENCODING 195
SWIDTH 720 0
DWIDTH 12 0
BBX 12 19 0 0
BITMAP
1C40
26C0
2380
0000
0000
0600
0600
0F00
0B00
0900
1980
1080
30C0
30C0
3FC0
6060
4060
C030
C030
ENDCHAR
STARTCHAR 00C4
ENCODING 196
SWIDTH 720 0
DWIDTH 12 0
BBX 12 18 0 0
BITMAP
1980
1900
0000
0000
0600
0600
0F00
0B00
0900
1980
1080
30C0
30C0
3FC0
6060
4060
C030
C030
ENDCHAR
STARTCHAR 00C5
ENCODING 197
SWIDTH 720 0
DWIDTH 12 0
BBX 12 20 0 0
BITMAP
0600
0900
0900
0600
0000
0000
0600
0600
0F00
0B00
0900
1980
1080
30C0
30C0
3FC0
6060
4060
C030
C030
ENDCHAR
STARTCHAR 00C6
ENCODING 198
SWIDTH 840 0
DWIDTH 14 0
BBX 13 14 0 0
BITMAP
07F8
0700
0F00
0F00
0B00
1B00
13F8
3300
3300
3F00
6300
4300
C300
C3F8
ENDCHAR
STARTCHAR 00C7
ENCODING 199
SWIDTH 780 0
DWIDTH 13 0
BBX 12 19 1 -5
BITMAP
0FC0
1FF0
3000
6000
C000
C000
C000
C000
C000
C000
6000
3000
1FF0
0FC0
0200
0700
0080
0880
0700
ENDCHAR
STARTCHAR 00C8
ENCODING 200
SWIDTH 600 0
DWIDTH 10 0
BBX 7 18 2 0
BITMAP
40
60
10
00
FE
80
80
80
80
80
FC
80
80
80
80
80
80
FE
ENDCHAR
STARTCHAR 00C9
ENCODING 201
SWIDTH 600 0
DWIDTH 10 0
BBX 7 18 2 0
BITMAP
08
18
20
00
FE
80
80
80
80
80
FC
80
80
80
80
80
80
FE
ENDCHAR
STARTCHAR 00CA
ENCODING 202
SWIDTH 600 0
DWIDTH 10 0
BBX 7 18 2 0
BITMAP
30
78
84
00
FE
80
80
80
80
80
FC
80
80
80
80
80
80
FE
ENDCHAR
STARTCHAR 00CB
ENCODING 203
SWIDTH 600 0
DWIDTH 10 0
BBX 7 18 2 0
BITMAP
CC
4C
00
00
FE
80
80
80
80
80
FC
80
80
80
80
80
80
FE
ENDCHAR
STARTCHAR 00CC
ENCODING 204
SWIDTH 300 0
DWIDTH 5 0
BBX 3 18 0 0
BITMAP
80
C0
20
00
20
20
20
20
20
20
20
20
20
20
20
20
20
20
ENDCHAR
STARTCHAR 00CD
ENCODING 205
SWIDTH 300 0
DWIDTH 5 0
BBX 3 18 2 0
BITMAP
20
60
80
00
80
80
80
80
80
80
80
80
80
80
80
80
80
80
ENDCHAR
STARTCHAR 00CE
ENCODING 206
SWIDTH 300 0
DWIDTH 5 0
BBX 6 18 -1 0
BITMAP
10
68
84
00
10
10
10
10
10
10
10
10
10
10
10
10
10
10
ENDCHAR
STARTCHAR 00CF
ENCODING 207
SWIDTH 300 0
DWIDTH 5 0
BBX 5 18 0 0
BITMAP
88
88
00
00
20
20
20
20
20
20
20
20
20
20
20
20
20
20
ENDCHAR
STARTCHAR 00D0
ENCODING 208
SWIDTH 780 0
DWIDTH 13 0
BBX 12 14 0 0
BITMAP
3E00
2380
20C0
2060
2020
2030
FE30
2030
2030
2060
2060
20C0
2380
3E00
ENDCHAR
STARTCHAR 00D1
ENCODING 209
SWIDTH 780 0
DWIDTH 13 0
BBX 10 19 2 0
BITMAP
3880
4D80
0700
0000
0000
80C0
C0C0
E0C0
A0C0
B0C0
98C0
88C0
8CC0
84C0
86C0
83C0
81C0
81C0
80C0
ENDCHAR
STARTCHAR 00D2
ENCODING 210
SWIDTH 960 0
DWIDTH 16 0
BBX 14 18 1 0
BITMAP
0400
0600
0100
0000
0F80
3FE0
7030
6018
C008
C00C
C00C
C00C
C00C
C008
6018
7030
3DE0
0F80
ENDCHAR
STARTCHAR 00D3
ENCODING 211
SWIDTH 960 0
DWIDTH 16 0
BBX 14 18 1 0
BITMAP
0080
0380
0200
0000
0F80
3FE0
7030
6018
C008
C00C
C00C
C00C
C00C
C008
6018
7030
3DE0
0F80
ENDCHAR
STARTCHAR 00D4
ENCODING 212
SWIDTH 960 0
DWIDTH 16 0
BBX 14 18 1 0
BITMAP
0300
0580
0840
0000
0F80
3FE0
7030
6018
C008
C00C
C00C
C00C
C00C
C008
6018
7030
3DE0
0F80
ENDCHAR
STARTCHAR 00D5
ENCODING 213
SWIDTH 960 0
DWIDTH 16 0
BBX 14 19 1 0
BITMAP
0E20
1360
11C0
0000
0000
0F80
3FE0
7030
6018
C008
C00C
C00C
C00C
C00C
C008
6018
7030
3DE0
0F80
ENDCHAR
STARTCHAR 00D6
ENCODING 214
SWIDTH 960 0
DWIDTH 16 0
BBX 14 18 1 0
BITMAP
0880
0CC0
0000
0000
0F80
3FE0
7030
6018
C008
C00C
C00C
C00C
C00C
C008
6018
7030
3DE0
0F80
ENDCHAR
STARTCHAR 00D7
ENCODING 215
SWIDTH 600 0
DWIDTH 10 0
BBX 7 8 1 3
BITMAP
82
C6
6C
38
38
6C
46
82
ENDCHAR
STARTCHAR 00D8
ENCODING 216
SWIDTH 960 0
DWIDTH 16 0
BBX 14 14 1 0
BITMAP
0FD0
3FF0
7030
6058
C0C8
C18C
C30C
C20C
C40C
CC08
7818
7030
3DE0
4F80
ENDCHAR
STARTCHAR 00D9
ENCODING 217
SWIDTH 780 0
DWIDTH 13 0
BBX 10 18 1 0
BITMAP
0800
0C00
0400
0000
C040
C040
C040
C040
C040
C040
C040
C040
C040
C040
40C0
60C0
7F80
1F00
ENDCHAR
STARTCHAR 00DA
ENCODING 218
SWIDTH 780 0
DWIDTH 13 0
BBX 10 18 1 0
BITMAP
0200
0600
0800
0000
C040
C040
C040
C040
C040
C040
C040
C040
C040
C040
40C0
60C0
7F80
1F00
ENDCHAR
STARTCHAR 00DB
ENCODING 219
SWIDTH 780 0
DWIDTH 13 0
BBX 10 18 1 0
BITMAP
0400
1A00
2100
0000
C040
C040
C040
C040
C040
C040
C040
C040
C040
C040
40C0
60C0
7F80
1F00
ENDCHAR
STARTCHAR 00DC
ENCODING 220
SWIDTH 780 0
DWIDTH 13 0
BBX 10 18 1 0
BITMAP
1300
1100
0000
0000
C040
C040
C040
C040
C040
C040
C040
C040
C040
C040
40C0
60C0
7F80
1F00
ENDCHAR
STARTCHAR 00DD
ENCODING 221
SWIDTH 660 0
DWIDTH 11 0
BBX 11 18 0 0
BITMAP
0200
0600
0800
0000
C060
60C0
6080
3180
1300
1B00
0E00
0C00
0400
0400
0400
0400
0400
0400
ENDCHAR
STARTCHAR 00DE
ENCODING 222
SWIDTH 840 0
DWIDTH 14 0
BBX 8 14 2 0
BITMAP
80
80
80
FC
8E
83
83
83
82
8E
FC
80
80
80
ENDCHAR
STARTCHAR 00DF
ENCODING 223
SWIDTH 660 0
DWIDTH 11 0
BBX 9 14 1 0
BITMAP
1E00
3300
6100
4100
4100
4300
5E00
C300
4180
4180
4180
4180
4700
5E00
ENDCHAR
STARTCHAR 00E0
ENCODING 224
SWIDTH 720 0
DWIDTH 12 0
BBX 9 13 1 0
BITMAP
1000
1800
0400
0000
3C80
6280
C180
C180
8080
C180
C180
6280
3C80
ENDCHAR
STARTCHAR 00E1
ENCODING 225
SWIDTH 720 0
DWIDTH 12 0
BBX 9 13 1 0
BITMAP
0400
0C00
1000
0000
3C80
6280
C180
C180
8080
C180
C180
6280
3C80
ENDCHAR
STARTCHAR 00E2
ENCODING 226
SWIDTH 720 0
DWIDTH 12 0
BBX 9 13 1 0
BITMAP
0800
3600
2200
0000
3C80
6280
C180
C080
8080
C180
C180
6280
3C80
ENDCHAR
STARTCHAR 00E3
ENCODING 227
SWIDTH 720 0
DWIDTH 12 0
BBX 9 13 1 0
BITMAP
7000
5D00
8700
0000
3C80
6280
C180
C180
8080
C180
C180
6280
3C80
ENDCHAR
STARTCHAR 00E4
ENCODING 228
SWIDTH 720 0
DWIDTH 12 0
BBX 9 13 1 0
BITMAP
2200
2200
0000
0000
3C80
6280
C180
C180
8080
C180
C180
6280
3C80
ENDCHAR
STARTCHAR 00E5
ENCODING 229
SWIDTH 720 0
DWIDTH 12 0
BBX 9 14 1 0
BITMAP
1C00
2400
3400
1C00
0000
3C80
6280
C180
C180
8080
C180
C180
6280
3C80
ENDCHAR
STARTCHAR 00E6
ENCODING 230
SWIDTH 1020 0
DWIDTH 17 0
BBX 15 9 1 0
BITMAP
3C78
468C
0306
0302
3FFE
4300
C300
43C6
3C78
ENDCHAR
STARTCHAR 00E7
ENCODING 231
SWIDTH 540 0
DWIDTH 9 0
BBX 7 14 1 -5
BITMAP
3E
72
C0
C0
80
C0
C0
72
3E
10
1C
04
24
18
ENDCHAR
STARTCHAR 00E8
ENCODING 232
SWIDTH 660 0
DWIDTH 11 0
BBX 9 13 1 0
BITMAP
1000
1800
0800
0000
3C00
6300
C100
8180
FF80
8000
C100
6300
3E00
ENDCHAR
STARTCHAR 00E9
ENCODING 233
SWIDTH 660 0
DWIDTH 11 0
BBX 9 13 1 0
BITMAP
0400
0C00
1000
0000
3C00
6300
C100
8180
FF80
8000
C100
6300
3E00
ENDCHAR
STARTCHAR 00EA
ENCODING 234
SWIDTH 660 0
DWIDTH 11 0
BBX 9 13 1 0
BITMAP
0800
3400
4200
0000
3C00
6300
C100
8180
FF80
8000
C100
6300
3E00
ENDCHAR
STARTCHAR 00EB
ENCODING 235
SWIDTH 660 0
DWIDTH 11 0
BBX 9 12 1 0
BITMAP
2200
2200
0000
3C00
6300
C100
8180
FF80
8000
C100
6300
3E00
ENDCHAR
STARTCHAR 00EC
ENCODING 236
SWIDTH 240 0
DWIDTH 4 0
BBX 3 13 0 0
BITMAP
80
C0
60
00
60
60
60
60
60
60
60
60
60
ENDCHAR
STARTCHAR 00ED
ENCODING 237
SWIDTH 240 0
DWIDTH 4 0
BBX 4 13 1 0
BITMAP
10
60
40
00
C0
C0
C0
C0
C0
C0
C0
C0
C0
ENDCHAR
STARTCHAR 00EE
ENCODING 238
SWIDTH 240 0
DWIDTH 4 0
BBX 6 13 -1 0
BITMAP
10
68
84
00
30
30
30
30
30
30
30
30
30
ENDCHAR
STARTCHAR 00EF
ENCODING 239
SWIDTH 240 0
DWIDTH 4 0
BBX 6 13 -1 0
BITMAP
44
CC
00
00
30
30
30
30
30
30
30
30
30
ENDCHAR
STARTCHAR 00F0
ENCODING 240
SWIDTH 720 0
DWIDTH 12 0
BBX 10 14 1 0
BITMAP
2600
1C00
1E00
0300
0100
3D80
6380
C180
C0C0
80C0
C080
C180
6300
3E00
ENDCHAR
STARTCHAR 00F1
ENCODING 241
SWIDTH 600 0
DWIDTH 10 0
BBX 8 13 1 0
BITMAP
70
D9
8E
00
DE
E3
C3
C1
C1
C1
C1
C1
C1
ENDCHAR
STARTCHAR 00F2
ENCODING 242
SWIDTH 660 0
DWIDTH 11 0
BBX 9 13 1 0
BITMAP
1000
1800
0400
0000
3E00
6300
C180
8080
8080
8080
C180
6300
3E00
ENDCHAR
STARTCHAR 00F3
ENCODING 243
SWIDTH 660 0
DWIDTH 11 0
BBX 9 13 1 0
BITMAP
0400
0C00
1800
0000
3E00
6300
C180
8080
8080
8080
C180
6300
3E00
ENDCHAR
STARTCHAR 00F4
ENCODING 244
SWIDTH 660 0
DWIDTH 11 0
BBX 9 13 1 0
BITMAP
0800
3600
2300
0000
3E00
6300
C180
8080
8080
8080
C180
6300
3E00
ENDCHAR
STARTCHAR 00F5
ENCODING 245
SWIDTH 660 0
DWIDTH 11 0
BBX 9 13 1 0
BITMAP
3880
5D80
0700
0000
3E00
6300
C180
8080
8080
8080
C180
6300
3E00
ENDCHAR
STARTCHAR 00F6
ENCODING 246
SWIDTH 660 0
DWIDTH 11 0
BBX 9 13 1 0
BITMAP
2200
2200
0000
0000
3E00
6300
C180
8080
8080
8080
C180
6300
3E00
ENDCHAR
STARTCHAR 00F7
ENCODING 247
SWIDTH 660 0
DWIDTH 11 0
BBX 9 10 1 2
BITMAP
0800
0800
0000
0000
0000
FF80
0000
0000
0800
0800
ENDCHAR
STARTCHAR 00F8
ENCODING 248
SWIDTH 660 0
DWIDTH 11 0
BBX 11 9 0 0
BITMAP
1F20
31C0
60C0
4340
4440
4840
70C0
7180
9F00
ENDCHAR
STARTCHAR 00F9
ENCODING 249
SWIDTH 600 0
DWIDTH 10 0
BBX 8 13 1 0
BITMAP
10
18
08
00
C3
C3
C3
C3
C3
C3
C3
66
3C
ENDCHAR
STARTCHAR 00FA
ENCODING 250
SWIDTH 600 0
DWIDTH 10 0
BBX 8 13 1 0
BITMAP
04
0C
10
00
C3
C3
C3
C3
C3
C3
C3
66
3C
ENDCHAR
STARTCHAR 00FB
ENCODING 251
SWIDTH 600 0
DWIDTH 10 0
BBX 8 13 1 0
BITMAP
18
34
42
00
C3
C3
C3
C3
C3
C3
C3
66
3C
ENDCHAR
STARTCHAR 00FC
ENCODING 252
SWIDTH 600 0
DWIDTH 10 0
BBX 8 12 1 0
BITMAP
66
22
00
C3
C3
C3
C3
C3
C3
C3
66
3C
ENDCHAR
STARTCHAR 00FD
ENCODING 253
SWIDTH 540 0
DWIDTH 9 0
BBX 9 18 0 -5
BITMAP
0400
0C00
0800
0000
C080
4180
6100
2300
3200
3200
1600
1C00
0C00
0800
1800
1000
3000
3000
ENDCHAR
STARTCHAR 00FE
ENCODING 254
SWIDTH 720 0
DWIDTH 12 0
BBX 10 19 1 -5
BITMAP
C000
C000
C000
C000
C000
DE00
F380
E180
C0C0
C0C0
C0C0
E080
F380
DE00
C000
C000
C000
C000
C000
ENDCHAR
STARTCHAR 00FF
ENCODING 255
SWIDTH 540 0
DWIDTH 9 0
BBX 9 17 0 -5
BITMAP
3300
2200
0000
C080
4180
6100
2300
3200
3200
1600
1C00
0C00
0800
1800
1000
3000
3000
ENDCHAR
STARTCHAR 0100
ENCODING 256
SWIDTH 720 0
DWIDTH 12 0
BBX 12 17 0 0
BITMAP
1F80
0000
0000
0600
0600
0F00
0B00
0900
1980
1080
30C0
30C0
3FC0
6060
4060
C030
C030
ENDCHAR
STARTCHAR 0101
ENCODING 257
SWIDTH 720 0
DWIDTH 12 0
BBX 9 12 1 0
BITMAP
7F00
0000
0000
3C80
6280
C180
C180
8080
C180
C180
6280
3C80
ENDCHAR
STARTCHAR 0102
ENCODING 258
SWIDTH 720 0
DWIDTH 12 0
BBX 12 19 0 0
BITMAP
1080
1180
0F00
0000
0000
0600
0600
0F00
0B00
0900
1980
1080
30C0
30C0
3FC0
6060
4060
C030
C030
ENDCHAR
STARTCHAR 0103
ENCODING 259
SWIDTH 720 0
DWIDTH 12 0
BBX 9 13 1 0
BITMAP
4100
6300
1C00
0000
3C80
6280
C180
C180
8080
C180
C180
6280
3C80
ENDCHAR
STARTCHAR 0104
ENCODING 260
SWIDTH 720 0
DWIDTH 12 0
BBX 13 19 0 -5
BITMAP
0600
0600
0F00
0B00
0900
1980
1080
30C0
30C0
3FC0
6060
4060
C030
C030
0020
0020
0040
0040
0038
ENDCHAR
STARTCHAR 0105
ENCODING 261
SWIDTH 720 0
DWIDTH 12 0
BBX 10 14 1 -5
BITMAP
3C80
6280
C180
C180
8080
C080
C180
6280
3C80
0100
0100
0200
0200
01C0
ENDCHAR
STARTCHAR 0106
ENCODING 262
SWIDTH 780 0
DWIDTH 13 0
BBX 12 18 1 0
BITMAP
0200
0600
0400
0000
0FC0
1FF0
3000
6000
C000
C000
C000
C000
C000
C000
6000
3000
1FF0
0FC0
ENDCHAR
STARTCHAR 0107
ENCODING 263
SWIDTH 540 0
DWIDTH 9 0
BBX 7 13 1 0
BITMAP
08
18
30
00
3E
72
C0
80
80
80
C0
72
3E
ENDCHAR
STARTCHAR 010C
ENCODING 268
SWIDTH 780 0
DWIDTH 13 0
BBX 12 18 1 0
BITMAP
08C0
0580
0200
0000
0FC0
1FF0
3000
6000
C000
C000
C000
C000
C000
C000
6000
3000
1FF0
0FC0
ENDCHAR
STARTCHAR 010D
ENCODING 269
SWIDTH 540 0
DWIDTH 9 0
BBX 7 13 1 0
BITMAP
42
3C
18
00
3E
72
C0
80
80
80
C0
72
3E
ENDCHAR
STARTCHAR 010E
ENCODING 270
SWIDTH 780 0
DWIDTH 13 0
BBX 10 18 2 0
BITMAP
4200
3C00
1800
0000
F800
8E00
8300
8180
8080
80C0
80C0
80C0
80C0
8080
8180
8300
8E00
F800
ENDCHAR
STARTCHAR 010F
ENCODING 271
SWIDTH 720 0
DWIDTH 12 0
BBX 12 14 1 0
BITMAP
00B0
0090
00A0
0080
0080
3C80
6280
C180
C180
8080
C080
C180
6280
3C80
ENDCHAR
STARTCHAR 0110
ENCODING 272
SWIDTH 780 0
DWIDTH 13 0
BBX 12 14 0 0
BITMAP
3E00
2380
20C0
2060
2020
2030
FE30
2030
2030
2060
2060
20C0
2380
3E00
ENDCHAR
STARTCHAR 0111
ENCODING 273
SWIDTH 720 0
DWIDTH 12 0
BBX 10 14 1 0
BITMAP
0080
0080
0FC0
0080
0080
3C80
6280
C180
C180
8080
C080
C180
6280
3C80
ENDCHAR
STARTCHAR 0112
ENCODING 274
SWIDTH 600 0
DWIDTH 10 0
BBX 7 17 2 0
BITMAP
FE
00
00
FE
80
80
80
80
80
FC
80
80
80
80
80
80
FE
ENDCHAR
STARTCHAR 0113
ENCODING 275
SWIDTH 660 0
DWIDTH 11 0
BBX 9 12 1 0
BITMAP
7F00
0000
0000
3C00
6300
C100
8180
FF80
8000
C100
6300
3E00
ENDCHAR
STARTCHAR 0116
ENCODING 278
SWIDTH 600 0
DWIDTH 10 0
BBX 7 17 2 0
BITMAP
30
10
00
FE
80
80
80
80
80
FC
80
80
80
80
80
80
FE
ENDCHAR
STARTCHAR 0117
ENCODING 279
SWIDTH 660 0
DWIDTH 11 0
BBX 9 12 1 0
BITMAP
0800
0800
0000
3C00
6300
C100
8180
FF80
8000
C100
6300
3E00
ENDCHAR
STARTCHAR 0118
ENCODING 280
SWIDTH 600 0
DWIDTH 10 0
BBX 7 19 2 -5
BITMAP
FE
80
80
80
80
80
FC
80
80
80
80
80
80
FE
10
10
10
12
1C
ENDCHAR
STARTCHAR 0119
ENCODING 281
SWIDTH 660 0
DWIDTH 11 0
BBX 9 14 1 -5
BITMAP
3C00
6300
C100
8180
FF80
8000
C100
6300
3E00
0800
0800
1000
0900
0E00
ENDCHAR
STARTCHAR 011A
ENCODING 282
SWIDTH 600 0
DWIDTH 10 0
BBX 7 18 2 0
BITMAP
84
68
30
00
FE
80
80
80
80
80
FC
80
80
80
80
80
80
FE
ENDCHAR
STARTCHAR 011B
ENCODING 283
SWIDTH 660 0
DWIDTH 11 0
BBX 9 13 1 0
BITMAP
4200
3400
0800
0000
3C00
6300
C100
8180
FF80
8000
C100
6300
3E00
ENDCHAR
STARTCHAR 0122
ENCODING 290
SWIDTH 900 0
DWIDTH 15 0
BBX 13 18 1 -4
BITMAP
0F80
3CE0
7030
6000
C000
C000
C000
C1F8
C018
C018
6018
7030
3CE0
0F80
0000
0200
0200
0200
ENDCHAR
STARTCHAR 0123
ENCODING 291
SWIDTH 720 0
DWIDTH 12 0
BBX 9 19 1 -5
BITMAP
0800
0800
0800
0800
0000
3C80
6280
C180
C180
8080
C180
C180
6280
3C80
0080
0180
C180
6300
3E00
ENDCHAR
STARTCHAR 012A
ENCODING 298
SWIDTH 300 0
DWIDTH 5 0
BBX 7 17 -1 0
BITMAP
FE
00
00
10
10
10
10
10
10
10
10
10
10
10
10
10
10
ENDCHAR
STARTCHAR 012B
ENCODING 299
SWIDTH 240 0
DWIDTH 4 0
BBX 7 12 -1 0
BITMAP
FE
00
00
30
30
30
30
30
30
30
30
30
ENDCHAR
STARTCHAR 012E
ENCODING 302
SWIDTH 300 0
DWIDTH 5 0
BBX 4 19 1 -5
BITMAP
40
40
40
40
40
40
40
40
40
40
40
40
40
40
80
80
80
90
E0
ENDCHAR
STARTCHAR 012F
ENCODING 303
SWIDTH 240 0
DWIDTH 4 0
BBX 5 18 0 -5
BITMAP
60
60
00
00
60
60
60
60
60
60
60
60
60
40
40
80
48
70
ENDCHAR
STARTCHAR 0131
ENCODING 305
SWIDTH 240 0
DWIDTH 4 0
BBX 2 9 1 0
BITMAP
C0
C0
C0
C0
C0
C0
C0
C0
C0
ENDCHAR
STARTCHAR 0136
ENCODING 310
SWIDTH 720 0
DWIDTH 12 0
BBX 9 18 2 -4
BITMAP
8180
8300
8600
8C00
9800
B000
E000
F000
B000
9800
8C00
8600
8300
8180
0000
1800
0800
1000
ENDCHAR
STARTCHAR 0137
ENCODING 311
SWIDTH 540 0
DWIDTH 9 0
BBX 7 18 1 -4
BITMAP
C0
C0
C0
C0
C0
C0
CC
D8
F0
F0
D8
CC
C6
C2
00
18
08
10
ENDCHAR
STARTCHAR 0139
ENCODING 313
SWIDTH 540 0
DWIDTH 9 0
BBX 7 18 2 0
BITMAP
20
60
80
00
80
80
80
80
80
80
80
80
80
80
80
80
80
FE
ENDCHAR
STARTCHAR 013A
ENCODING 314
SWIDTH 240 0
DWIDTH 4 0
BBX 4 18 1 0
BITMAP
10
70
40
00
C0
C0
C0
C0
C0
C0
C0
C0
C0
C0
C0
C0
C0
C0
ENDCHAR
STARTCHAR 013B
ENCODING 315
SWIDTH 540 0
DWIDTH 9 0
BBX 7 18 2 -4
BITMAP
80
80
80
80
80
80
80
80
80
80
80
80
80
FE
00
30
10
20
ENDCHAR
STARTCHAR 013C
ENCODING 316
SWIDTH 240 0
DWIDTH 4 0
BBX 2 18 1 -4
BITMAP
C0
C0
C0
C0
C0
C0
C0
C0
C0
C0
C0
C0
C0
C0
00
C0
40
80
ENDCHAR
STARTCHAR 013D
ENCODING 317
SWIDTH 540 0
DWIDTH 9 0
BBX 7 14 2 0
BITMAP
8C
84
88
80
80
80
80
80
80
80
80
80
80
FE
ENDCHAR
STARTCHAR 013E
ENCODING 318
SWIDTH 240 0
DWIDTH 4 0
BBX 5 14 1 0
BITMAP
D8
C8
D0
C0
C0
C0
C0
C0
C0
C0
C0
C0
C0
C0
ENDCHAR
STARTCHAR 0141
ENCODING 321
SWIDTH 540 0
DWIDTH 9 0
BBX 9 14 0 0
BITMAP
2000
2000
2000
2000
2000
3800
3000
6000
A000
2000
2000
2000
2000
3F80
ENDCHAR
STARTCHAR 0142
ENCODING 322
SWIDTH 240 0
DWIDTH 4 0
BBX 4 14 0 0
BITMAP
60
60
60
60
60
70
60
E0
60
60
60
60
60
60
ENDCHAR
STARTCHAR 0143
ENCODING 323
SWIDTH 780 0
DWIDTH 13 0
BBX 10 18 2 0
BITMAP
0400
0C00
1000
0000
80C0
C0C0
E0C0
A0C0
B0C0
98C0
88C0
8CC0
84C0
86C0
83C0
81C0
81C0
80C0
ENDCHAR
STARTCHAR 0144
ENCODING 324
SWIDTH 600 0
DWIDTH 10 0
BBX 8 13 1 0
BITMAP
04
0C
10
00
DE
E3
C3
C1
C1
C1
C1
C1
C1
ENDCHAR
STARTCHAR 0145
ENCODING 325
SWIDTH 780 0
DWIDTH 13 0
BBX 10 18 2 -4
BITMAP
80C0
C0C0
E0C0
A0C0
B0C0
98C0
88C0
8CC0
84C0
86C0
83C0
81C0
81C0
80C0
0000
0800
0800
0800
ENDCHAR
STARTCHAR 0146
ENCODING 326
SWIDTH 600 0
DWIDTH 10 0
BBX 8 13 1 -4
BITMAP
DE
E3
C3
C1
C1
C1
C1
C1
C1
00
18
08
10
ENDCHAR
STARTCHAR 0147
ENCODING 327
SWIDTH 780 0
DWIDTH 13 0
BBX 10 18 2 0
BITMAP
2100
1600
0800
0000
80C0
C0C0
E0C0
A0C0
B0C0
98C0
88C0
8CC0
84C0
86C0
83C0
81C0
81C0
80C0
ENDCHAR
STARTCHAR 0148
ENCODING 328
SWIDTH 600 0
DWIDTH 10 0
BBX 8 13 1 0
BITMAP
42
34
08
00
DE
E3
C3
C1
C1
C1
C1
C1
C1
ENDCHAR
STARTCHAR 014C
ENCODING 332
SWIDTH 960 0
DWIDTH 16 0
BBX 14 17 1 0
BITMAP
1FC0
0000
0000
0F80
3FE0
7030
6018
C008
C00C
C00C
C00C
C00C
C008
6018
7030
3DE0
0F80
ENDCHAR
STARTCHAR 014D
ENCODING 333
SWIDTH 660 0
DWIDTH 11 0
BBX 9 12 1 0
BITMAP
7F00
0000
0000
3E00
6300
C180
8080
8080
8080
C180
6300
3E00
ENDCHAR
STARTCHAR 0150
ENCODING 336
SWIDTH 960 0
DWIDTH 16 0
BBX 14 18 1 0
BITMAP
0240
06C0
0980
0000
0F80
3FE0
7030
6018
C008
C00C
C00C
C00C
C00C
C008
6018
7030
3DE0
0F80
ENDCHAR
STARTCHAR 0151
ENCODING 337
SWIDTH 660 0
DWIDTH 11 0
BBX 9 13 1 0
BITMAP
0900
1B00
2400
0000
3E00
6300
C180
8080
8080
8080
C180
6300
3E00
ENDCHAR
STARTCHAR 0152
ENCODING 338
SWIDTH 960 0
DWIDTH 16 0
BBX 14 14 1 0
BITMAP
0FFC
3D80
7180
6180
C180
C180
C1FC
C180
C180
C180
6180
7180
3D80
0FFC
ENDCHAR
STARTCHAR 0153
ENCODING 339
SWIDTH 1140 0
DWIDTH 19 0
BBX 17 9 1 0
BITMAP
3E3C00
636300
C1C100
C08180
80FF80
808000
C1C100
636300
3E3E00
ENDCHAR
STARTCHAR 0154
ENCODING 340
SWIDTH 660 0
DWIDTH 11 0
BBX 8 18 2 0
BITMAP
10
30
20
00
FC
8E
83
83
83
83
86
FC
90
98
8C
86
83
83
ENDCHAR
STARTCHAR 0155
ENCODING 341
SWIDTH 420 0
DWIDTH 7 0
BBX 6 13 1 0
BITMAP
10
30
20
00
DC
E0
C0
C0
C0
C0
C0
C0
C0
ENDCHAR
STARTCHAR 0156
ENCODING 342
SWIDTH 660 0
DWIDTH 11 0
BBX 8 18 2 -4
BITMAP
FC
8E
83
83
83
83
86
FC
90
98
8C
86
83
83
00
18
08
10
ENDCHAR
STARTCHAR 0157
ENCODING 343
SWIDTH 420 0
DWIDTH 7 0
BBX 6 13 1 -4
BITMAP
DC
E0
C0
C0
C0
C0
C0
C0
C0
00
C0
40
80
ENDCHAR
STARTCHAR 0158
ENCODING 344
SWIDTH 660 0
DWIDTH 11 0
BBX 8 18 2 0
BITMAP
84
78
30
00
FC
8E
83
83
83
83
86
FC
90
98
8C
86
83
83
ENDCHAR
STARTCHAR 0159
ENCODING 345
SWIDTH 420 0
DWIDTH 7 0
BBX 6 13 1 0
BITMAP
84
68
10
00
DC
E0
C0
C0
C0
C0
C0
C0
C0
ENDCHAR
STARTCHAR 015A
ENCODING 346
SWIDTH 660 0
DWIDTH 11 0
BBX 9 18 1 0
BITMAP
0400
0C00
0800
0000
1E00
3300
6000
4000
4000
7000
3C00
0700
0180
0180
0080
C180
7700
3E00
ENDCHAR
STARTCHAR 015B
ENCODING 347
SWIDTH 480 0
DWIDTH 8 0
BBX 6 13 1 0
BITMAP
08
18
20
00
78
C8
C0
60
38
0C
04
CC
78
ENDCHAR
STARTCHAR 015E
ENCODING 350
SWIDTH 660 0
DWIDTH 11 0
BBX 9 19 1 -5
BITMAP
1E00
3300
6000
4000
4000
7000
3C00
0700
0180
0180
0080
C180
7700
3E00
0800
1C00
0200
2200
1C00
ENDCHAR
STARTCHAR 015F
ENCODING 351
SWIDTH 480 0
DWIDTH 8 0
BBX 6 14 1 -5
BITMAP
78
C8
C0
60
38
0C
04
CC
78
20
38
08
48
30
ENDCHAR
STARTCHAR 0160
ENCODING 352
SWIDTH 660 0
DWIDTH 11 0
BBX 9 18 1 0
BITMAP
2100
1600
0800
0000
1E00
3300
6000
4000
4000
7000
3C00
0700
0180
0180
0080
C180
7700
3E00
ENDCHAR
STARTCHAR 0161
ENCODING 353
SWIDTH 480 0
DWIDTH 8 0
BBX 6 13 1 0
BITMAP
84
68
10
00
78
C8
C0
60
38
0C
04
CC
78
ENDCHAR
STARTCHAR 0162
ENCODING 354
SWIDTH 600 0
DWIDTH 10 0
BBX 10 18 0 -4
BITMAP
FFC0
0C00
0C00
0C00
0C00
0C00
0C00
0C00
0C00
0C00
0C00
0C00
0C00
0C00
0000
0C00
0400
0800
ENDCHAR
STARTCHAR 0163
ENCODING 355
SWIDTH 360 0
DWIDTH 6 0
BBX 4 16 1 -4
BITMAP
40
40
40
F0
40
40
40
40
40
40
60
70
00
20
20
20
ENDCHAR
STARTCHAR 0164
ENCODING 356
SWIDTH 600 0
DWIDTH 10 0
BBX 10 18 0 0
BITMAP
2100
1600
0C00
0000
FFC0
0C00
0C00
0C00
0C00
0C00
0C00
0C00
0C00
0C00
0C00
0C00
0C00
0C00
ENDCHAR
STARTCHAR 0165
ENCODING 357
SWIDTH 360 0
DWIDTH 6 0
BBX 5 14 1 0
BITMAP
08
08
48
40
40
F0
40
40
40
40
40
40
60
70
ENDCHAR
STARTCHAR 016A
ENCODING 362
SWIDTH 780 0
DWIDTH 13 0
BBX 10 17 1 0
BITMAP
3F80
0000
0000
C040
C040
C040
C040
C040
C040
C040
C040
C040
C040
40C0
60C0
7F80
1F00
ENDCHAR
STARTCHAR 016B
ENCODING 363
SWIDTH 600 0
DWIDTH 10 0
BBX 8 12 1 0
BITMAP
7F
00
00
C3
C3
C3
C3
C3
C3
C3
66
3C
ENDCHAR
STARTCHAR 016E
ENCODING 366
SWIDTH 780 0
DWIDTH 13 0
BBX 10 19 1 0
BITMAP
0E00
1200
1200
0C00
0000
C040
C040
C040
C040
C040
C040
C040
C040
C040
C040
40C0
60C0
7F80
1F00
ENDCHAR
STARTCHAR 016F
ENCODING 367
SWIDTH 600 0
DWIDTH 10 0
BBX 8 14 1 0
BITMAP
1C
24
1C
00
00
C3
C3
C3
C3
C3
C3
C3
66
3C
ENDCHAR
STARTCHAR 0170
ENCODING 368
SWIDTH 780 0
DWIDTH 13 0
BBX 10 18 1 0
BITMAP
0880
1B80
1200
0000
C040
C040
C040
C040
C040
C040
C040
C040
C040
C040
40C0
60C0
7F80
1F00
ENDCHAR
STARTCHAR 0171
ENCODING 369
SWIDTH 600 0
DWIDTH 10 0
BBX 8 13 1 0
BITMAP
12
36
64
00
C3
C3
C3
C3
C3
C3
C3
66
3C
ENDCHAR
STARTCHAR 0172
ENCODING 370
SWIDTH 780 0
DWIDTH 13 0
BBX 10 19 1 -5
BITMAP
C040
C040
C040
C040
C040
C040
C040
C040
C040
C040
40C0
60C0
7F80
1F00
0800
0800
1000
0900
0E00
ENDCHAR
STARTCHAR 0173
ENCODING 371
SWIDTH 600 0
DWIDTH 10 0
BBX 8 14 1 -5
BITMAP
C3
C3
C3
C3
C3
C3
C3
66
3C
10
10
20
20
1C
ENDCHAR
STARTCHAR 0178
ENCODING 376
SWIDTH 660 0
DWIDTH 11 0
BBX 11 18 0 0
BITMAP
1100
1100
0000
0000
C060
60C0
6080
3180
1300
1B00
0E00
0C00
0400
0400
0400
0400
0400
0400
ENDCHAR
STARTCHAR 0179
ENCODING 377
SWIDTH 780 0
DWIDTH 13 0
BBX 11 18 1 0
BITMAP
0200
0600
0400
0000
7FE0
00C0
0080
0180
0300
0600
0600
0C00
1800
1000
3000
6000
4000
FFE0
ENDCHAR
STARTCHAR 017A
ENCODING 378
SWIDTH 540 0
DWIDTH 9 0
BBX 8 13 1 0
BITMAP
04
1C
10
00
FF
06
0C
08
18
30
60
40
FF
ENDCHAR
STARTCHAR 017B
ENCODING 379
SWIDTH 780 0
DWIDTH 13 0
BBX 11 17 1 0
BITMAP
0600
0400
0000
7FE0
00C0
0080
0180
0300
0600
0600
0C00
1800
1000
3000
6000
4000
FFE0
ENDCHAR
STARTCHAR 017C
ENCODING 380
SWIDTH 540 0
DWIDTH 9 0
BBX 8 13 1 0
BITMAP
18
18
00
00
FF
06
0C
08
18
30
60
40
FF
ENDCHAR
STARTCHAR 017D
ENCODING 381
SWIDTH 780 0
DWIDTH 13 0
BBX 11 18 1 0
BITMAP
1080
0B00
0400
0000
7FE0
00C0
0080
0180
0300
0600
0600
0C00
1800
1000
3000
6000
4000
FFE0
ENDCHAR
STARTCHAR 017E
ENCODING 382
SWIDTH 540 0
DWIDTH 9 0
BBX 8 13 1 0
BITMAP
42
3C
18
00
FF
06
0C
08
18
30
60
40
FF
ENDCHAR
STARTCHAR 0218
ENCODING 536
SWIDTH 660 0
DWIDTH 11 0
BBX 9 18 1 -4
BITMAP
1E00
3300
6000
4000
4000
7000
3C00
0700
0180
0180
0080
C180
7700
3E00
0000
0800
0800
0800
ENDCHAR
STARTCHAR 0219
ENCODING 537
SWIDTH 480 0
DWIDTH 8 0
BBX 6 13 1 -4
BITMAP
78
C8
C0
60
38
0C
04
CC
78
00
30
10
20
ENDCHAR
STARTCHAR 02C6
ENCODING 710
SWIDTH 540 0
DWIDTH 9 0
BBX 6 3 1 11
BITMAP
10
6C
C4
ENDCHAR
STARTCHAR 02C7
ENCODING 711
SWIDTH 480 0
DWIDTH 8 0
BBX 6 3 1 11
BITMAP
84
78
30
ENDCHAR
STARTCHAR 02D8
ENCODING 728
SWIDTH 540 0
DWIDTH 9 0
BBX 7 3 1 11
BITMAP
82
46
3C
ENDCHAR
STARTCHAR 02D9
ENCODING 729
SWIDTH 240 0
DWIDTH 4 0
BBX 2 2 1 11
BITMAP
C0
80
ENDCHAR
STARTCHAR 02DA
ENCODING 730
SWIDTH 420 0
DWIDTH 7 0
BBX 4 4 1 10
BITMAP
70
90
90
60
ENDCHAR
STARTCHAR 02DB
ENCODING 731
SWIDTH 360 0
DWIDTH 6 0
BBX 4 5 1 -5
BITMAP
40
40
80
80
70
ENDCHAR
STARTCHAR 02DC
ENCODING 732
SWIDTH 600 0
DWIDTH 10 0
BBX 8 3 1 10
BITMAP
71
9B
8E
ENDCHAR
STARTCHAR 02DD
ENCODING 733
SWIDTH 540 0
DWIDTH 9 0
BBX 6 3 1 11
BITMAP
24
6C
C8
ENDCHAR
STARTCHAR 2013
ENCODING 8211
SWIDTH 600 0
DWIDTH 10 0
BBX 8 1 1 4
BITMAP
FF
ENDCHAR
STARTCHAR 2014
ENCODING 8212
SWIDTH 1020 0
DWIDTH 17 0
BBX 15 1 1 4
BITMAP
FFFE
ENDCHAR
STARTCHAR 2018
ENCODING 8216
SWIDTH 180 0
DWIDTH 3 0
BBX 1 4 1 10
BITMAP
80
80
80
80
ENDCHAR
STARTCHAR 2019
ENCODING 8217
SWIDTH 180 0
DWIDTH 3 0
BBX 2 4 1 10
BITMAP
C0
C0
80
80
ENDCHAR
STARTCHAR 201A
ENCODING 8218
SWIDTH 240 0
DWIDTH 4 0
BBX 2 4 1 -2
BITMAP
C0
C0
40
80
ENDCHAR
STARTCHAR 201C
ENCODING 8220
SWIDTH 360 0
DWIDTH 6 0
BBX 4 4 1 10
BITMAP
90
A0
B0
B0
ENDCHAR
STARTCHAR 201D
ENCODING 8221
SWIDTH 360 0
DWIDTH 6 0
BBX 4 4 1 10
BITMAP
B0
F0
90
A0
ENDCHAR
STARTCHAR 201E
ENCODING 8222
SWIDTH 360 0
DWIDTH 6 0
BBX 4 4 1 -2
BITMAP
B0
F0
90
A0
ENDCHAR
STARTCHAR 2020
ENCODING 8224
SWIDTH 420 0
DWIDTH 7 0
BBX 7 14 0 0
BITMAP
10
10
10
10
FE
10
10
10
10
10
10
10
10
10
ENDCHAR
STARTCHAR 2021
ENCODING 8225
SWIDTH 420 0
DWIDTH 7 0
BBX 7 14 0 0
BITMAP
10
10
10
10
FE
10
10
10
10
FE
10
10
10
10
ENDCHAR
STARTCHAR 2022
ENCODING 8226
SWIDTH 360 0
DWIDTH 6 0
BBX 3 3 2 4
BITMAP
E0
E0
C0
ENDCHAR
STARTCHAR 2026
ENCODING 8230
SWIDTH 660 0
DWIDTH 11 0
BBX 9 2 1 0
BITMAP
D980
D980
ENDCHAR
STARTCHAR 2030
ENCODING 8240
SWIDTH 1500 0
DWIDTH 25 0
BBX 23 14 1 0
BITMAP
781000
842000
824000
824000
848000
788000
010000
023838
024444
048282
048282
088282
08C446
10383C
ENDCHAR
STARTCHAR 2039
ENCODING 8249
SWIDTH 300 0
DWIDTH 5 0
BBX 4 9 0 0
BITMAP
10
30
20
40
C0
40
20
30
10
ENDCHAR
STARTCHAR 203A
ENCODING 8250
SWIDTH 300 0
DWIDTH 5 0
BBX 4 9 1 0
BITMAP
80
C0
40
20
30
20
40
C0
80
ENDCHAR
STARTCHAR 2044
ENCODING 8260
SWIDTH 240 0
DWIDTH 4 0
BBX 8 14 -2 0
BITMAP
01
01
02
02
04
04
08
10
10
20
20
40
40
80
ENDCHAR
STARTCHAR 20AC
ENCODING 8364
SWIDTH 840 0
DWIDTH 14 0
BBX 13 14 0 0
BITMAP
03E0
0FF8
1800
3000
3000
FFE0
6000
6000
FFE0
3000
3000
1800
0FF8
03F0
ENDCHAR
STARTCHAR 2122
ENCODING 8482
SWIDTH 480 0
DWIDTH 8 0
BBX 7 4 1 10
BITMAP
94
B6
BA
2A
ENDCHAR
STARTCHAR 2212
ENCODING 8722
SWIDTH 600 0
DWIDTH 10 0
BBX 8 1 1 6
BITMAP
FF
ENDCHAR
STARTCHAR 2260
ENCODING 8800
SWIDTH 600 0
DWIDTH 10 0
BBX 8 10 1 2
BITMAP
02
04
04
FF
18
10
FF
20
40
40
ENDCHAR
STARTCHAR 2264
ENCODING 8804
SWIDTH 600 0
DWIDTH 10 0
BBX 10 12 0 1
BITMAP
00C0
0300
1C00
7000
C000
3800
0E00
0380
00C0
0000
0000
FFC0
ENDCHAR
STARTCHAR 2265
ENCODING 8805
SWIDTH 600 0
DWIDTH 10 0
BBX 9 12 1 1
BITMAP
8000
7000
1C00
0700
0180
0700
1C00
6000
8000
0000
0000
FF80
ENDCHAR
STARTCHAR FB00
ENCODING 64256
SWIDTH 600 0
DWIDTH 10 0
BBX 9 14 1 0
BITMAP
3B80
6600
4600
4600
4600
FF80
4600
4600
4600
4600
4600
4600
4600
4600
ENDCHAR
STARTCHAR FB01
ENCODING 64257
SWIDTH 540 0
DWIDTH 9 0
BBX 6 14 1 0
BITMAP
38
6C
40
40
40
FC
44
44
44
44
44
44
44
44
ENDCHAR
STARTCHAR FB02
ENCODING 64258
SWIDTH 540 0
DWIDTH 9 0
BBX 7 14 1 0
BITMAP
3E
66
46
46
46
F6
46
46
46
46
46
46
46
46
ENDCHAR
STARTCHAR FB03
ENCODING 64259
SWIDTH 780 0
DWIDTH 13 0
BBX 11 14 1 0
BITMAP
3B80
6640
4600
4600
4600
FFE0
4660
4660
4660
4660
4660
4660
4660
4660
ENDCHAR
STARTCHAR FB04
ENCODING 64260
SWIDTH 840 0
DWIDTH 14 0
BBX 11 14 1 0
BITMAP
3BA0
6620
4620
4620
4620
FFA0
4620
4620
4620
4620
4620
4620
4620
4620
ENDCHAR
ENDFONT
